<svg xmlns="http://www.w3.org/2000/svg" viewBox="0 0 500 300" role="img" aria-labelledby="title desc">
  <title id="title">Physics-informed neural network flow thumbnail</title>
  <desc id="desc">A stylized advection-dominated flow field connected to a neural network and weak boundary conditions.</desc>
  <defs>
    <linearGradient id="field" x1="0" y1="0" x2="1" y2="1">
      <stop offset="0" stop-color="#f7fbff"/>
      <stop offset="0.55" stop-color="#d7ecf4"/>
      <stop offset="1" stop-color="#f4e4cf"/>
    </linearGradient>
    <marker id="arrow" viewBox="0 0 10 10" refX="8" refY="5" markerWidth="5" markerHeight="5" orient="auto-start-reverse">
      <path d="M 0 0 L 10 5 L 0 10 z" fill="#28666e"/>
    </marker>
  </defs>
  <rect width="500" height="300" rx="16" fill="url(#field)"/>
  <g opacity="0.9">
    <path d="M28 62 C86 28 145 91 202 55 C256 21 310 74 370 44 C414 22 451 31 475 57" fill="none" stroke="#28666e" stroke-width="3" marker-end="url(#arrow)"/>
    <path d="M23 121 C78 92 139 146 201 116 C266 84 320 135 383 105 C427 84 457 91 481 116" fill="none" stroke="#3f88c5" stroke-width="3" marker-end="url(#arrow)"/>
    <path d="M21 182 C81 156 143 206 206 177 C268 149 326 196 386 170 C431 150 462 156 480 180" fill="none" stroke="#d95d39" stroke-width="3" marker-end="url(#arrow)"/>
    <path d="M25 239 C89 218 144 260 205 237 C267 214 331 249 387 229 C431 214 461 218 479 238" fill="none" stroke="#28666e" stroke-width="3" marker-end="url(#arrow)"/>
  </g>
  <g transform="translate(300 78)">
    <line x1="0" y1="24" x2="54" y2="24" stroke="#284b63" stroke-width="2"/>
    <line x1="0" y1="80" x2="54" y2="80" stroke="#284b63" stroke-width="2"/>
    <line x1="54" y1="24" x2="109" y2="52" stroke="#284b63" stroke-width="2"/>
    <line x1="54" y1="80" x2="109" y2="52" stroke="#284b63" stroke-width="2"/>
    <line x1="109" y1="52" x2="160" y2="52" stroke="#284b63" stroke-width="2"/>
    <circle cx="0" cy="24" r="10" fill="#f4a261"/>
    <circle cx="0" cy="80" r="10" fill="#f4a261"/>
    <circle cx="54" cy="24" r="10" fill="#2a9d8f"/>
    <circle cx="54" cy="80" r="10" fill="#2a9d8f"/>
    <circle cx="109" cy="52" r="11" fill="#e76f51"/>
    <circle cx="160" cy="52" r="10" fill="#264653"/>
  </g>
  <g transform="translate(48 42)">
    <rect x="0" y="0" width="126" height="196" rx="8" fill="none" stroke="#1f3d4d" stroke-width="2" stroke-dasharray="8 7"/>
    <text x="17" y="182" fill="#1f3d4d" font-family="Arial, sans-serif" font-size="18" font-weight="700">weak BC</text>
  </g>
  <text x="26" y="284" fill="#23343b" font-family="Arial, sans-serif" font-size="20" font-weight="700">Stabilized PINN for advection-dominated flow</text>
</svg>
